<svg xmlns="http://www.w3.org/2000/svg" width="256" height="256"><defs><clipPath id="a"><path d="M134 184h100v66.16H134Zm0 0"/></clipPath><clipPath id="b"><path d="M69 225h53v25.16H69Zm0 0"/></clipPath></defs><path d="M162.023 193.29c-10.12 5.296-21.613 8.339-33.812 8.339-40.328 0-73.035-32.7-73.035-73.035 0-25.918 13.55-48.637 33.918-61.598l-11.64-20.164C50.143 63.816 31.956 94.07 31.956 128.59c0 53.168 43.086 96.25 96.258 96.25 16.43 0 31.898-4.113 45.45-11.387Zm0 0" style="stroke:none;fill-rule:nonzero;fill:#000;fill-opacity:1"/><g clip-path="url(#a)"><path d="m134.586 238.824.004 12.102c42.414-2.188 79.14-25.938 99.383-60.524l-10.446-6.027c-18.168 30.969-50.984 52.293-88.941 54.45Zm0 0" style="stroke:none;fill-rule:nonzero;fill:#000;fill-opacity:1"/></g><path d="M134.586 6.262v12.093c58.027 3.305 104.062 51.403 104.062 110.235 0 15.797-3.343 30.797-9.332 44.394l10.516 6.067c6.977-15.395 10.871-32.465 10.879-50.461 0-65.504-51.441-119.004-116.125-122.328ZM169.43 115.582l14.195.004c-5.914-25.172-28.445-43.941-55.418-43.938-26.977 0-49.512 18.77-55.406 43.934h14.191c5.531-17.5 21.887-30.2 41.219-30.2 19.32 0 35.687 12.704 41.219 30.2ZM71.258 128.59c0 31.469 25.504 56.945 56.949 56.95 31.45 0 56.953-25.5 56.953-56.95.004-.082-.02-.164-.023-.227l-13.73.004c-.009.059.015.14.015.223 0 23.86-19.356 43.215-43.215 43.207-23.86.008-43.21-19.348-43.207-43.207-.004-.082 0-.164 0-.227H71.262c-.004.063 0 .145-.004.227Zm0 0" style="stroke:none;fill-rule:nonzero;fill:#000;fill-opacity:1"/><path d="M224.453 128.59a95.86 95.86 0 0 0-12.574-47.55l-20.137 11.616c6.012 10.621 9.496 22.867 9.5 35.934-.004 23.547-11.203 44.418-28.492 57.781l11.715 20.281c24.219-17.476 39.988-45.906 39.988-78.062Zm0 0" style="stroke:none;fill-rule:nonzero;fill:#000;fill-opacity:1"/><g clip-path="url(#b)"><path d="M69.64 236.168c15.65 8.539 33.337 13.8 52.184 14.758v-12.098a109.973 109.973 0 0 1-46.136-13.09Zm0 0" style="stroke:none;fill-rule:nonzero;fill:#000;fill-opacity:1"/></g><path d="m58.77 229.48 6.042-10.484c-28.43-19.969-47.03-53.02-47.03-90.406 0-58.836 46.019-106.93 104.046-110.235V6.262C57.148 9.586 5.703 63.086 5.711 128.59c0 41.855 21.012 78.793 53.059 100.89ZM178.77 46.75l-11.59 20.094a73.443 73.443 0 0 1 17.336 15.254l20.316-11.743c-7.144-9.367-15.996-17.37-26.062-23.605Zm0 0" style="stroke:none;fill-rule:nonzero;fill:#000;fill-opacity:1"/><path d="m88.719 40.828 11.703 20.238a72.674 72.674 0 0 1 27.793-5.504 72.57 72.57 0 0 1 27.59 5.422l11.699-20.242a95.93 95.93 0 0 0-39.297-8.402 96.11 96.11 0 0 0-39.488 8.488Zm0 0" style="stroke:none;fill-rule:nonzero;fill:#000;fill-opacity:1"/></svg>
